<svg version="1.1" id="Layer_1" xmlns="http://www.w3.org/2000/svg" xmlns:xlink="http://www.w3.org/1999/xlink" viewBox="-6.4 -6.4 76.80 76.80" enable-background="new 0 0 64 64" xml:space="preserve" fill="#e7dfdf" stroke="#e7dfdf"><g id="SVGRepo_bgCarrier" stroke-width="0" transform="translate(0,0), scale(1)"><rect x="-6.4" y="-6.4" width="76.80" height="76.80" rx="9.216" fill="#e3f2f2" strokewidth="0"></rect></g><g id="SVGRepo_tracerCarrier" stroke-linecap="round" stroke-linejoin="round" stroke="#cf1ed2" stroke-width="0.128"></g><g id="SVGRepo_iconCarrier"> <line fill="none" stroke="#0d0c0c" stroke-width="1.6640000000000001" stroke-miterlimit="10" x1="25" y1="24" x2="47" y2="24"></line> <line fill="none" stroke="#0d0c0c" stroke-width="1.6640000000000001" stroke-miterlimit="10" x1="25" y1="34" x2="47" y2="34"></line> <line fill="none" stroke="#0d0c0c" stroke-width="1.6640000000000001" stroke-miterlimit="10" x1="25" y1="44" x2="47" y2="44"></line> <line fill="none" stroke="#0d0c0c" stroke-width="1.6640000000000001" stroke-miterlimit="10" x1="25" y1="54" x2="47" y2="54"></line> <line fill="none" stroke="#0d0c0c" stroke-width="1.6640000000000001" stroke-miterlimit="10" x1="21" y1="24" x2="17" y2="24"></line> <line fill="none" stroke="#0d0c0c" stroke-width="1.6640000000000001" stroke-miterlimit="10" x1="21" y1="34" x2="17" y2="34"></line> <line fill="none" stroke="#0d0c0c" stroke-width="1.6640000000000001" stroke-miterlimit="10" x1="21" y1="44" x2="17" y2="44"></line> <line fill="none" stroke="#0d0c0c" stroke-width="1.6640000000000001" stroke-miterlimit="10" x1="21" y1="54" x2="17" y2="54"></line> <polyline fill="none" stroke="#0d0c0c" stroke-width="1.6640000000000001" stroke-miterlimit="10" points="23,8 10,8 10,63 54,63 54,8 41,8 "></polyline> <polygon fill="none" stroke="#0d0c0c" stroke-width="1.6640000000000001" stroke-miterlimit="10" points="36,5 36,1 28,1 28,5 24,5 22,13 42,13 40,5 "></polygon> </g></svg>